<?xml version="1.0" standalone="no"?>
<!DOCTYPE svg PUBLIC "-//W3C//DTD SVG 1.1//EN" "http://www.w3.org/Graphics/SVG/1.1/DTD/svg11.dtd" >
<svg xmlns="http://www.w3.org/2000/svg" xmlns:xlink="http://www.w3.org/1999/xlink" version="1.1">
<metadata>
Created by FontForge 20161116 at Thu Aug  6 12:21:12 2015
 By Jimmy Wärting
Copyright (c) 2013 ParaType Inc., ParaType Ltd. All rights reserved.
</metadata>
<defs>
<font id="PTRoubleSans" horiz-adv-x="1138" >
  <font-face 
    font-family="PT Rouble Sans"
    font-weight="400"
    font-stretch="normal"
    units-per-em="2048"
    panose-1="2 0 1 1 1 1 1 1 1 1"
    ascent="1946"
    descent="-102"
    x-height="1409"
    cap-height="1479"
    bbox="-98 0 1657 1516"
    underline-thickness="102"
    underline-position="-204"
    unicode-range="U+0020-2116"
  />
<missing-glyph horiz-adv-x="477" 
 />
    <glyph glyph-name=".notdef" horiz-adv-x="477" 
 />
    <glyph glyph-name=".null" horiz-adv-x="0" 
 />
    <glyph glyph-name="nonmarkingreturn" horiz-adv-x="682" 
 />
    <glyph glyph-name="space" unicode=" " horiz-adv-x="477" 
 />
    <glyph glyph-name="exclam" unicode="!" horiz-adv-x="1171" 
d="M895 954q6 27 6 43q0 93 -117 93h-51l-59 -287h41q86 0 124.5 32.5t55.5 118.5zM774 162h-237l-25 -119q-6 -28 -15.5 -35.5t-33.5 -7.5h-279q-19 0 -25.5 3t-6.5 13q0 3 4 27l24 119h-108q-37 0 -37 18q0 5 4 25l33 157q8 35 15.5 43.5t35.5 8.5h110l21 96h-111
q-37 0 -37 18l5 25l41 199q7 35 16 43t39 8h110l111 528q6 27 13 33t34 6h359q204 0 299.5 -69.5t95.5 -241.5q0 -37 -8 -84q-38 -213 -188.5 -339t-364.5 -126h-58l-20 -96h237q21 0 29 -4t8 -17q0 -3 -4 -31l-33 -157q-6 -27 -15.5 -35t-37.5 -8z" />
    <glyph glyph-name="quotedbl" unicode="&#x22;" horiz-adv-x="1179" 
d="M399 1309v-549h205q181 0 265.5 69.5t84.5 219.5q0 148 -84 204t-266 56h-205zM248 0v360h-160v123h160v154h-160v123h160v674h411q50 0 94.5 -5.5t97 -19.5t94.5 -42.5t78 -70t55.5 -107.5t19.5 -149q0 -96 -30 -169.5t-76.5 -117t-112 -70.5t-128 -36.5t-133.5 -9.5
h-219v-154h482v-123h-482v-360h-151z" />
    <glyph glyph-name="percent" unicode="%" horiz-adv-x="1331" 
d="M559 1143v-377h150q116 0 180.5 48t64.5 144q0 185 -245 185h-150zM221 0v213h-178v211h178v131h-178v211h178v668h553q251 0 382.5 -116t131.5 -310q0 -114 -39 -202.5t-107 -142t-155 -81t-188 -27.5h-240v-131h420v-211h-420v-213h-338z" />
    <glyph glyph-name="parenleft" unicode="(" horiz-adv-x="1085" 
d="M432 1434h322q153 0 262 -26.5t182 -102.5q105 -110 105 -285q0 -209 -129 -328q-157 -149 -523 -149h-211l-22 -99h438l-27 -127h-438l-67 -317h-197l68 317h-168l26 127h168l21 99h-168l32 159h168zM473 702h184q255 0 351 93q82 78 82 215q0 116 -68 180
q-46 45 -117 59.5t-172 14.5h-141z" />
    <glyph glyph-name="parenright" unicode=")" horiz-adv-x="1228" 
d="M639 1434q176 0 289 -26t196 -108q125 -125 125 -311q0 -211 -121 -332q-57 -58 -144 -90t-160.5 -39.5t-172.5 -7.5h-186v-112h438v-164h-438v-244h-307v244h-178v164h178v112h-178v217h178v697h481zM465 737h125q192 0 268 72q64 61 64 158q0 69 -24 112t-52 62
q-61 43 -209 43h-172v-447z" />
    <glyph glyph-name="asterisk" unicode="*" horiz-adv-x="1064" 
d="M557 1434q281 0 414 -129q61 -58 94 -143t33 -179q0 -192 -113 -305q-135 -135 -461 -135h-221v-99h438v-127h-438v-317h-197v317h-167v127h167v99h-167v159h167v732h451zM303 702h232q186 0 272 78q80 71 80 205q0 125 -78 199q-84 80 -272 80h-234v-562z" />
    <glyph glyph-name="plus" unicode="+" horiz-adv-x="1228" 
d="M668 1434q335 0 477 -140q129 -125 129 -348q0 -197 -115 -317q-43 -45 -95 -73.5t-111 -41t-105.5 -16.5t-110.5 -4h-248v-125h398v-189h-398v-180h-364v180h-180v189h180v125h-180v258h180v682h543zM489 752h162q39 0 64.5 2t59.5 14t59 35q55 50 55 143q0 103 -49 148
q-52 49 -160 49h-191v-391z" />
    <glyph glyph-name="comma" unicode="," horiz-adv-x="870" 
d="M20 733h121l158 737h164q407 0 407 -374q0 -119 -47.5 -224.5t-126.5 -162.5q-80 -57 -175 -78t-222 -21h-43l-31 -147h264l-26 -123h-264l-70 -340h-139l69 340h-120l24 123h123l31 147h-123zM283 733h77q182 0 276.5 97t94.5 266q0 130 -61 190t-207 60h-51z" />
    <glyph glyph-name="hyphen" unicode="-" horiz-adv-x="1101" 
d="M743 965q0 89 -34 126t-119 37h-55v-337h40q95 0 131.5 40t36.5 134zM1049 983q0 -200 -123 -326.5t-332 -126.5h-59v-122h260q27 0 35 -7.5t8 -35.5v-142q0 -27 -7 -34t-36 -7h-260v-141q0 -27 -7 -34t-34 -7h-226q-27 0 -33 6.5t-6 34.5v141h-118q-29 0 -36 7t-7 34
v142q0 28 8 35.5t35 7.5h118v122h-118q-29 0 -36 7t-7 34v177q0 28 8 35.5t35 7.5h118v540q0 28 5.5 33.5t33.5 5.5h326q234 0 344.5 -94.5t110.5 -292.5z" />
    <glyph glyph-name="period" unicode="." 
d="M694 1253l-98 -487h180q54 0 112.5 19t96.5 53q39 32 68.5 94.5t29.5 128.5q0 78 -55 133q-59 59 -180 59h-154zM197 766h194l135 668h357q229 0 338 -109q82 -82 82 -213q0 -105 -40.5 -209t-107.5 -168q-149 -149 -414 -149h-180l-39 -191h281l-27 -131h-280l-54 -264
h-204l53 264h-193l27 131h192l39 191h-194z" />
    <glyph glyph-name="slash" unicode="/" horiz-adv-x="1228" 
d="M440 1434h475q294 0 431 -142q116 -121 116 -313q0 -211 -114 -334q-40 -42 -93.5 -72t-102.5 -45t-121 -23t-120.5 -9.5t-128.5 -1.5h-186l-25 -125h414l-39 -189h-416l-38 -180h-357l39 180h-180l39 189h180l27 125h-181l56 256h180zM651 750h154q150 0 211 55
q27 24 44 66t17 92q0 95 -59 139q-50 41 -158 41h-127z" />
    <glyph glyph-name="zero" unicode="0" 
d="M629 1159l-84 -397h61q46 0 80 3.5t72 16.5t64.5 35.5t48.5 61.5t32 94q4 23 4 51q0 135 -190 135h-88zM498 547l-29 -139h240q32 0 32 -25q0 -12 -2 -18l-20 -105q-4 -13 -7.5 -20.5t-15 -15t-28.5 -7.5h-240l-37 -176q-9 -41 -49 -41h-160q-35 0 -35 27q0 2 1.5 7
t1.5 7l36 176h-123q-11 0 -16 1t-10.5 7t-5.5 19q0 10 2 16l20 105q3 12 6 19t14.5 15.5t30.5 8.5h123l29 139h-123h-7.5t-7 0.5t-7.5 2t-5.5 4t-4.5 7t-1 10.5q0 11 2 19l27 129q3 12 6 19t14.5 15.5t30.5 8.5h123l119 565q9 41 49 41h295q84 0 149 -12t122 -41t87.5 -85
t30.5 -136q0 -64 -8 -107q-36 -200 -183.5 -320t-369.5 -120h-96z" />
    <glyph glyph-name="one" unicode="1" horiz-adv-x="882" 
d="M0 813h125v684h281q227 0 327.5 -101.5t100.5 -346.5q0 -209 -98.5 -321t-282.5 -112h-103v-151h217v-197h-217v-268h-225v268h-125v197h125v151h-125v197zM350 815q18 -2 43 -2q119 0 167 59.5t48 194.5q0 123 -44 180.5t-148 57.5q-26 0 -66 -7v-483z" />
    <glyph glyph-name="two" unicode="2" horiz-adv-x="882" 
d="M10 801h133l146 684h194q207 0 303.5 -100.5t96.5 -299.5q0 -100 -30.5 -185.5t-89.5 -150t-153 -101t-213 -36.5h-78l-30 -143h221l-39 -188h-221l-62 -281h-215l62 281h-133l39 188h133l30 143h-133zM360 801h74q105 0 174.5 80.5t69.5 195.5q0 41 -3 69.5t-12.5 59
t-27.5 49.5t-49.5 31t-75.5 12h-47z" />
    <glyph glyph-name="three" unicode="3" horiz-adv-x="778" 
d="M514 367h-256v-367h-115v367h-131v102h131v164h-131v102h131v746h248q186 0 264 -104.5t78 -313.5q0 -228 -82 -329t-289 -101h-104v-164h256v-102zM258 735h102q149 0 203.5 72t54.5 244q0 175 -49.5 252t-187.5 77h-123v-645z" />
    <glyph glyph-name="four" unicode="4" horiz-adv-x="815" 
d="M578 315h-230v-315h-198v315h-130v181h130v131h-130v180h130v674h210q127 0 204 -18.5t123 -69t62.5 -126.5t16.5 -204q0 -121 -16.5 -200t-57.5 -134t-111 -78.5t-178 -23.5h-55v-131h230v-181zM348 807h31q49 0 82 10.5t53.5 28.5t31 53t14 73.5t3.5 100.5
q0 126 -35.5 176.5t-138.5 50.5h-41v-493z" />
    <glyph glyph-name="five" unicode="5" horiz-adv-x="1024" 
d="M412 690h80q26 0 44.5 1t49 6.5t52.5 15.5t47.5 30t41.5 47.5t26.5 70.5t10.5 97q0 61 -14.5 104.5t-35.5 66.5t-56.5 36t-66 16t-75.5 3h-104v-494zM668 270h-256v-247q0 -23 -23 -23h-113q-22 0 -22 23v247h-143q-21 0 -21 23v65q0 23 21 23h143v176h-141q-23 0 -23 23
v88q0 22 23 22h141v604q0 23 22 23h254q59 0 95.5 -2.5t99.5 -21t100.5 -52.5t67 -104.5t29.5 -169.5q0 -82 -19.5 -148.5t-49 -108.5t-72 -72.5t-79 -45.5t-81 -23.5t-67.5 -10t-48 -1.5h-94v-176h250q20 0 25 -8.5t5 -26.5v-53q0 -23 -24 -23z" />
    <glyph glyph-name="six" unicode="6" horiz-adv-x="1024" 
d="M438 690h80q22 0 34.5 0.5t37.5 2.5t42 6.5t42.5 13.5t43.5 22t39.5 33t37 45.5t30 61t23.5 77.5q8 41 8 80q0 49 -16.5 80.5t-48.5 46.5t-64.5 20t-79.5 5h-104zM604 270h-256l-53 -247q-5 -23 -27 -23h-112q-19 0 -19 14v9l53 247h-143q-16 0 -16 15v8l14 65
q5 23 27 23h143l37 176h-141q-19 0 -19 14v9l19 88q7 22 28 22h142l127 604q3 8 5 12t8 7.5t15 3.5h254q46 0 81.5 -3t84.5 -17t81 -38.5t55.5 -72.5t23.5 -115q0 -50 -10 -104q-16 -82 -48 -148.5t-68.5 -108.5t-85 -72.5t-87.5 -45.5t-86.5 -23.5t-72.5 -10t-54 -1.5h-94
l-37 -176h250q24 0 24 -19q0 -6 -2 -16l-12 -53q-5 -23 -29 -23z" />
    <glyph glyph-name="seven" unicode="7" horiz-adv-x="1060" 
d="M784 969q0 118 -51.5 163.5t-181.5 45.5h-111v-445h101q121 0 182 54.5t61 181.5zM993 979q0 -205 -117 -315.5t-309 -110.5h-127v-158h248q22 0 27.5 -6t5.5 -29v-90q0 -23 -5.5 -30t-27.5 -7h-248v-200q0 -21 -6.5 -27t-27.5 -6h-140q-21 0 -25.5 5.5t-4.5 27.5v200
h-132q-22 0 -27 7t-5 30v90q0 23 5 29t27 6h132v158h-132q-22 0 -27 7t-5 30v108q0 23 5 29t27 6h132v578q0 22 4.5 27t25.5 5h299q126 0 211.5 -24.5t132 -74t65.5 -113t19 -152.5z" />
    <glyph glyph-name="eight" unicode="8" horiz-adv-x="1073" 
d="M494 733h100q128 0 197.5 55t95.5 181q8 41 8 71q0 72 -46.5 105t-150.5 33h-110zM289 733l123 578q5 22 10.5 27t26.5 5h299q196 0 279 -64.5t83 -186.5q0 -46 -12 -113q-41 -206 -175.5 -316t-340.5 -110h-127l-33 -158h248q16 0 21 -2.5t5 -11.5q0 -13 -2 -21l-18 -90
q-5 -23 -12 -30t-29 -7h-248l-43 -200q-4 -21 -12 -27t-29 -6h-139q-16 0 -21.5 2.5t-5.5 11.5q0 11 2 19l43 200h-131q-26 0 -26 17q0 4 4 20l16 90q4 23 11.5 29t29.5 6h131l33 158h-131q-29 0 -29 16q0 5 4 21l23 108q4 23 11.5 29t29.5 6h131z" />
    <glyph glyph-name="nine" unicode="9" 
d="M496 1159v-397h61q41 0 71 3t66.5 15.5t59.5 34t39 62t16 96.5q0 52 -17 89.5t-39 55.5t-58 28t-57.5 11.5t-53.5 1.5h-88zM496 547v-139h239q14 0 23.5 -4t12.5 -12t4 -13t1 -14v-105q0 -14 -1.5 -21t-11 -14.5t-28.5 -7.5h-239v-176q0 -41 -41 -41h-160q-41 0 -41 41
v176h-123q-9 0 -14.5 1t-12.5 4.5t-10.5 13t-3.5 24.5v105q0 9 1 14t4 13t12.5 12t23.5 4h123v139h-123q-9 0 -14.5 1t-12.5 4.5t-10.5 13t-3.5 24.5v129q0 9 1 14t4 13t12.5 12t23.5 4h123v565q0 41 41 41h295q78 0 140 -8t124.5 -33t103.5 -66t67 -110.5t26 -163.5
q0 -200 -123.5 -320t-335.5 -120h-96z" />
    <glyph glyph-name="colon" unicode=":" horiz-adv-x="1044" 
d="M547 1434q246 0 375 -129q122 -122 122 -301q0 -185 -112 -297q-140 -140 -440 -140h-238v-106h438v-111h-438v-350h-152v350h-153v111h153v106h-153v121h153v746h445zM254 688h192q255 0 353 98q78 78 78 213q0 129 -70 205q-56 63 -140 83t-192 20h-221v-619z" />
    <glyph glyph-name="semicolon" unicode=";" horiz-adv-x="1228" 
d="M479 1210v-438h162q152 0 220.5 61t68.5 162q0 215 -289 215h-162zM217 0v272h-172v177h172v147h-172v176h172v662h485q218 0 351 -104t133 -310q0 -97 -32 -173.5t-81 -122.5t-114 -76t-126 -41t-122 -11h-232v-147h434v-177h-434v-272h-262z" />
    <glyph glyph-name="equal" unicode="=" horiz-adv-x="1107" 
d="M858 965q6 40 6 63q0 52 -30 76t-97 24h-55l-72 -337h41q97 0 143.5 39t63.5 135zM1165 983q-51 -221 -194 -337t-357 -116h-59l-25 -122h261q20 0 28 -4.5t8 -16.5q0 -2 -4 -22l-30 -142q-5 -26 -14 -33.5t-38 -7.5h-260l-28 -141q-6 -27 -15.5 -34t-36.5 -7h-225
q-19 0 -26 2.5t-7 11.5q0 3 4 27l29 141h-119q-21 0 -27.5 3.5t-6.5 15.5q0 14 2 22l30 142q4 28 14 35.5t37 7.5h119l25 122h-119q-21 0 -29 3.5t-8 13.5q0 4 4 24l37 177q6 29 15 36t36 7h119l115 540q6 28 12.5 33.5t34.5 5.5h326q383 0 383 -278q0 -62 -11 -109z" />
    <glyph glyph-name="question" unicode="?" horiz-adv-x="1044" 
d="M274 688l158 746h285q72 0 127 -4t116.5 -16.5t112.5 -39t90 -67.5q101 -109 101 -263q0 -98 -33.5 -185t-89.5 -144q-48 -49 -113.5 -81t-140 -45.5t-128.5 -17.5t-122 -4h-236l-24 -106h438l-24 -111h-437l-75 -350h-152l74 350h-154l25 111h153l23 106h-156l29 121
h153zM426 688h213q266 0 369 103q86 86 86 243q0 121 -70 191q-49 49 -123.5 65.5t-181.5 16.5h-162z" />
    <glyph glyph-name="backslash" unicode="\" horiz-adv-x="1153" 
d="M764 954q0 75 -33.5 105.5t-105.5 30.5h-52v-287h41q85 0 117.5 33.5t32.5 117.5zM811 162h-238v-119q0 -28 -7 -35.5t-31 -7.5h-279q-26 0 -32.5 7t-6.5 36v119h-111q-28 0 -35.5 8t-7.5 35v157q0 35 7 43.5t36 8.5h111v96h-111q-28 0 -35.5 8t-7.5 35v199q0 35 7 43
t36 8h111v528q0 27 6 33t33 6h358q137 0 219 -20.5t138 -73.5q53 -50 83.5 -131t30.5 -170q0 -209 -125 -337t-329 -128h-58v-96h238q29 0 36 -8.5t7 -43.5v-157q0 -27 -7.5 -35t-35.5 -8z" />
    <glyph glyph-name="underscore" unicode="_" horiz-adv-x="1228" 
d="M473 1434h404q150 0 256 -24.5t182 -104.5q108 -112 108 -310q0 -192 -112 -307q-52 -54 -121.5 -90t-148 -51.5t-141 -21t-136.5 -5.5h-180l-27 -112h438l-34 -164h-439l-51 -244h-303l51 244h-178l35 164h178l25 112h-179l50 217h178zM627 733h92q234 0 315 86
q62 65 62 172q0 105 -76 156q-56 37 -170 37h-127z" />
    <glyph glyph-name="afii10017" unicode="&#x410;" horiz-adv-x="1064" 
d="M1006 1057q0 -219 -120 -337t-351 -118h-119v-135h415v-156h-415v-311h-303v311h-86v156h86v135h-86v156h86v690q41 6 96 12q171 19 303 19q52 0 98 -6q4 0 29 -5q8 0 12 -2q11 0 23 -4q89 -18 155 -57.5t103.5 -94.5t55.5 -117.5t18 -135.5zM711 1038q0 242 -215 242
q-22 0 -35 -1.5t-25 -4.5t-20 -4v-512h63q53 0 94.5 16t67 42t41.5 63t22.5 75.5t6.5 83.5z" />
    <glyph glyph-name="afii10018" unicode="&#x411;" horiz-adv-x="1232" 
d="M35 817h174l147 662h316q284 0 412 -91t128 -294q0 -231 -135 -357.5t-399 -126.5h-254l-31 -143h338l-51 -207h-336l-59 -260h-260l59 260h-176l49 207h174l31 143h-176zM465 817h170q156 0 237.5 68t81.5 192q0 95 -59 147t-182 52h-146z" />
    <glyph glyph-name="afii10019" unicode="&#x412;" horiz-adv-x="1034" 
d="M1126 1167q2 -119 -34.5 -215.5t-99 -161t-149 -107.5t-182 -62t-200.5 -19l-39 -172h352l-22 -119h-353l-61 -311h-272l63 311h-102l20 119h107l36 172h-102l25 117h102l145 731q195 29 373 29q190 0 290 -85t103 -227zM834 1116q-1 64 -15 106.5t-38.5 61t-46 25
t-48.5 6.5q-46 0 -84 -6l-119 -590q94 0 164.5 33.5t110.5 91t59 126t17 146.5z" />
    <glyph glyph-name="afii10020" unicode="&#x413;" horiz-adv-x="1064" 
d="M20 295v174h152v123h-152v174h152v668h410q220 0 334 -110t114 -316q0 -203 -114 -309.5t-334 -106.5h-148v-123h391v-174h-391v-295h-262v295h-152zM434 766h98q236 0 236 248q0 117 -56.5 171t-179.5 54h-98v-473z" />
    <glyph glyph-name="afii10021" unicode="&#x414;" horiz-adv-x="954" 
d="M1167 1137q0 -73 -18 -141t-61 -134.5t-108 -115.5t-167 -79t-229 -30h-121l-37 -145h383l-29 -113h-381l-82 -379h-170l82 379h-104l29 113h102l33 145h-111l29 113h106l160 702q117 27 307 27q197 0 292 -95.5t95 -246.5zM989 1122q0 112 -60.5 171t-176.5 59
q-37 0 -71 -4t-49 -8l-16 -5l-131 -585h82q217 0 319.5 100.5t102.5 271.5z" />
    <glyph glyph-name="afii10022" unicode="&#x415;" horiz-adv-x="1515" 
d="M850 496h-45v-103h328v-258h-328v-135h-529v135h-194v258h194v103h-194v311h194v627h574q161 0 282.5 -36.5t194 -101.5t108 -148t35.5 -183t-35.5 -183t-108 -148t-194 -101.5t-282.5 -36.5zM956 954q0 148 -114 148h-51v-295h51q114 0 114 147z" />
    <glyph glyph-name="afii10024" unicode="&#x416;" horiz-adv-x="993" 
d="M123 334h-96v133h96v158h-96v133h96v690q180 31 389 31q240 0 360.5 -108.5t120.5 -293.5q0 -108 -32 -189t-85.5 -130.5t-133 -80t-164 -41.5t-189.5 -11v-158h442v-133h-442v-334h-266v334zM717 1047q0 123 -54.5 193.5t-160.5 70.5q-39 0 -113 -11v-542q176 0 252 65
t76 224z" />
    <glyph glyph-name="afii10025" unicode="&#x417;" horiz-adv-x="1005" 
d="M817 336h-549v-336h-139v336h-129v94h129v225h-129v95h129v706q170 29 363 29q103 0 186 -24t135.5 -63t87.5 -91t49.5 -104.5t14.5 -106.5q0 -58 -13.5 -113.5t-52 -116.5t-98 -106.5t-160.5 -75t-231 -29.5h-142v-225h549v-94zM815 1090q0 142 -89.5 219t-274.5 77
q-41 0 -86.5 -4t-70.5 -8l-26 -4v-620q49 -2 131 -2q95 0 168.5 19t119.5 50t75.5 76t41 93t11.5 104z" />
    <glyph glyph-name="afii10026" unicode="&#x418;" horiz-adv-x="1236" 
d="M385 346v-346h-192v346h-142v164h142v125h-142v164h142v686h454q259 0 378.5 -102.5t119.5 -319.5q0 -208 -115.5 -318t-345.5 -110h-299v-125h383v-164h-383zM385 1321v-522h233q171 0 250.5 63t79.5 203q0 134 -81 195t-255 61h-227z" />
    <glyph glyph-name="afii10027" unicode="&#x419;" horiz-adv-x="1257" 
d="M541 788h88q84 0 140 32.5t78.5 80t22.5 105.5q0 93 -60 147.5t-181 54.5h-88v-420zM250 1434h383q107 0 193.5 -20.5t142 -52t97 -76.5t62 -85t33 -87t15 -74t2.5 -54q0 -59 -15.5 -116t-52.5 -113.5t-92 -98.5t-140.5 -68t-191.5 -26h-145v-170h309v-184h-309v-209
h-291v209h-195v184h195v170h-195v225h195v646z" />
    <glyph glyph-name="afii10028" unicode="&#x41a;" horiz-adv-x="1253" 
d="M766 1163l-80 -375h64q87 0 137 52q67 67 67 207q0 36 -24 75q-30 41 -101 41h-63zM629 518l-27 -125h338l-45 -209h-338l-39 -184h-373l39 184h-192l45 209h192l27 125h-195l58 270h194l138 646h409q80 0 152.5 -10.5t148.5 -43.5t113 -86q55 -79 55 -190
q0 -267 -155 -422q-93 -93 -203 -128.5t-242 -35.5h-100z" />
    <glyph glyph-name="afii10029" unicode="&#x41b;" horiz-adv-x="954" 
d="M119 637h-92v113h92v702q109 27 332 27q102 0 182.5 -24.5t129.5 -63.5t81 -92t44.5 -105.5t12.5 -108.5q0 -219 -134.5 -333.5t-356.5 -114.5h-121v-145h518v-113h-518v-379h-170v379h-92v113h92v145zM729 1079q0 129 -73 201t-224 72q-38 0 -74 -4t-52 -8l-17 -5v-585
h90q350 0 350 329z" />
    <glyph glyph-name="afii10030" unicode="&#x41c;" horiz-adv-x="1232" 
d="M51 770h162l158 711h334q254 0 372.5 -91t118.5 -286q0 -216 -144.5 -339.5t-410.5 -123.5h-301l-39 -162h387l-26 -129h-390l-79 -350h-150l78 350h-164l27 129h166l36 162h-161zM367 770h235q216 0 327 85.5t111 246.5q0 137 -86.5 194.5t-277.5 57.5h-180z" />
    <glyph glyph-name="afii10031" unicode="&#x41d;" horiz-adv-x="1515" 
d="M936 496h-45l-23 -103h328l-51 -258h-328l-29 -135h-528l29 135h-193l49 258h195l22 103h-194l61 311h195l129 627h573q139 0 243.5 -29.5t166 -83t91.5 -120.5t30 -148q0 -252 -185.5 -401.5t-535.5 -155.5zM938 807h51q74 0 113 58t39 134q0 45 -22 74t-68 29h-52z" />
    <glyph glyph-name="afii10032" unicode="&#x41e;" horiz-adv-x="905" 
d="M752 336h-478l-73 -336h-117l72 336h-111l21 94h110l51 225h-110l16 95h113l157 706q156 29 297 29q99 0 171 -25.5t112 -71t58 -99.5t18 -118q0 -231 -158.5 -373.5t-445.5 -142.5h-109l-51 -225h477zM436 748q226 0 359 105.5t133 301.5q0 231 -260 231q-36 0 -76.5 -4
t-63.5 -8l-22 -4l-141 -620l68 -2h3z" />
    <glyph glyph-name="afii10033" unicode="&#x41f;" horiz-adv-x="1064" 
d="M1221 1167q0 -123 -37 -220t-100.5 -161t-154.5 -106t-193.5 -60t-221.5 -18l-29 -135h365l-35 -156h-362l-66 -311h-340l66 311h-103l35 156h100l29 135h-98l37 156h94l147 690q213 31 416 31q127 0 216.5 -22.5t140 -65.5t72.5 -97.5t22 -126.5zM877 1116
q0 92 -37.5 128t-91.5 36q-18 0 -91 -10l-108 -512q84 0 147 29t96.5 69.5t53.5 94t25.5 91.5t5.5 74z" />
    <glyph glyph-name="afii10034" unicode="&#x420;" horiz-adv-x="905" 
d="M725 336h-477v-336h-119v336h-113v94h113v225h-113v95h113v706q149 29 313 29q111 0 194.5 -36t129 -95t67 -124t21.5 -134q0 -57 -12 -113t-45.5 -117t-85 -106.5t-139.5 -75t-201 -29.5h-123v-225h477v-94zM723 1090q0 142 -77.5 219t-237.5 77q-36 0 -76 -4t-62 -8
l-22 -4v-620q42 -2 114 -2q103 0 176 27.5t112 77.5t56 107.5t17 129.5z" />
    <glyph glyph-name="afii10035" unicode="&#x421;" horiz-adv-x="1232" 
d="M49 764h162v717h418q260 0 383 -103.5t123 -314.5q0 -201 -118.5 -313.5t-340.5 -112.5h-318v-160h412v-127h-412v-350h-147v350h-162v127h162v160h-162v127zM358 764h252q193 0 281 72t88 229q0 149 -93 220t-288 71h-240v-592z" />
    <glyph glyph-name="afii10036" unicode="&#x422;" horiz-adv-x="1232" 
d="M27 633l36 164h152l154 684h327q267 0 391.5 -91t124.5 -288q0 -221 -141 -345t-405 -124h-283l-29 -127h355l-39 -164h-353l-77 -342h-205l78 342h-150l37 164h150l28 127h-151zM537 1317l-117 -520h205q191 0 287 75.5t96 221.5q0 117 -74 170t-236 53h-161z" />
    <glyph glyph-name="afii10037" unicode="&#x423;" horiz-adv-x="1253" 
d="M614 1163v-375h64q81 0 121 52q35 46 35 137q0 97 -43 145q-39 41 -113 41h-64zM614 518v-125h338v-209h-338v-184h-372v184h-195v209h195v125h-195v270h195v646h409q320 0 451 -140q104 -117 104 -323q0 -177 -92 -291q-131 -162 -399 -162h-101z" />
    <glyph glyph-name="afii10038" unicode="&#x424;" horiz-adv-x="1005" 
d="M1112 1151q0 -72 -20 -141.5t-66.5 -138t-116 -120t-176.5 -83t-239 -31.5h-103l-33 -145h396l-27 -113h-393l-80 -379h-176l80 379h-109l27 113h106l31 145h-115l27 113h111l151 702q121 27 320 27q206 0 305.5 -89.5t99.5 -238.5zM928 1141q0 107 -58.5 159t-191.5 52
q-38 0 -73 -4t-51 -8l-15 -5l-125 -585h57q229 0 343 106t114 285z" />
    <glyph glyph-name="afii10039" unicode="&#x425;" horiz-adv-x="1005" 
d="M813 453h-418l-96 -453h-139l96 453h-121l23 94h118q3 20 11.5 59t13.5 64h-121l25 94h117l147 692q141 23 315 23q189 0 287 -85t98 -223q0 -63 -14 -125t-44 -125t-85.5 -115t-130.5 -81q-137 -55 -332 -55h-127l-20 -123h420zM1026 1145q0 54 -18 96t-47.5 67.5
t-70 42t-82 23t-87.5 6.5q-41 0 -73.5 -2.5t-45.5 -5.5l-12 -2l-131 -606h114q74 0 137 11t122.5 38t101.5 69.5t67 109.5t25 153z" />
    <glyph glyph-name="afii10040" unicode="&#x426;" horiz-adv-x="1257" 
d="M719 788h88q137 0 214 76t77 183q0 73 -52 117t-155 44h-88zM557 1434h383q114 0 200.5 -25.5t135 -63.5t78.5 -90.5t39.5 -97t9.5 -92.5q0 -72 -21.5 -142t-68.5 -135.5t-114 -115t-165.5 -79.5t-216.5 -30h-145l-33 -170h309l-39 -184h-309l-41 -209h-291l41 209h-192
l39 184h192l33 170h-195l47 225h195z" />
    <glyph glyph-name="afii10041" unicode="&#x427;" horiz-adv-x="1216" 
d="M47 758h170l160 712h360q457 0 457 -366q0 -240 -153.5 -347.5t-489.5 -107.5q-147 0 -229 6l-41 -178h436l-25 -106h-434l-82 -371h-125l80 371h-172l25 106h172l39 174h-172zM770 1364h-289l-137 -606h322q192 0 296.5 90.5t104.5 247.5q0 127 -76 197.5t-221 70.5z
" />
    <glyph glyph-name="afii10042" unicode="&#x428;" horiz-adv-x="1064" 
d="M14 578v202h140v654h403q229 0 348 -98t119 -322q0 -94 -25.5 -171.5t-76 -137.5t-134 -93.5t-192.5 -33.5h-123v-121h346v-203h-346v-254h-319v254h-140v203h140v121h-140zM461 780h71q85 0 129 68t44 174q0 109 -44 159t-147 50h-53v-451z" />
    <glyph glyph-name="afii10043" unicode="&#x429;" horiz-adv-x="1122" 
d="M195 1434h372q97 0 175.5 -17t131 -43.5t91.5 -65.5t61 -77t35 -84t16.5 -80.5t3.5 -71.5q0 -86 -25 -154.5t-61.5 -111t-90 -73.5t-97 -45.5t-97 -22.5t-75.5 -9t-47 -1h-131q-13 0 -22 -10t-9 -21v-144h205q57 0 57 -57v-82q0 -57 -57 -57h-205v-135q0 -26 -5.5 -41.5
t-17.5 -21.5t-21.5 -7.5t-27.5 -1.5h-159q-18 0 -27.5 1.5t-21.5 7.5t-17.5 21.5t-5.5 41.5v135h-66q-57 0 -57 57v82q0 26 12.5 40t22 15.5t22.5 1.5h66v959q0 18 1.5 27.5t7.5 21.5t21.5 17.5t41.5 5.5zM449 844h118q80 0 133.5 46t53.5 120q0 68 -45 114.5t-144 46.5
h-112q-27 0 -27 -26v-281q0 -20 23 -20z" />
    <glyph glyph-name="afii10044" unicode="&#x42a;" horiz-adv-x="1005" 
d="M119 637h-92v113h92v702q115 27 338 27q112 0 199 -24.5t139 -63t85.5 -92t45.5 -105.5t12 -109q0 -110 -41 -197t-113 -141t-165.5 -82t-202.5 -28h-123l2 -145h536v-113h-536v-379h-176v379h-92v113h92v145zM745 1069q0 130 -77.5 206.5t-229.5 76.5q-38 0 -74 -4
t-52 -8l-17 -5l-4 -585h94q172 0 266 79.5t94 239.5z" />
    <glyph glyph-name="afii10045" unicode="&#x42b;" horiz-adv-x="1034" 
d="M123 334h-96v133h96v158h-96v133h96v690q180 31 389 31q243 0 366 -101.5t123 -283.5q0 -91 -21.5 -163.5t-62 -123t-94 -87t-123 -57t-142.5 -29.5t-159 -9v-158h432v-133h-432v-334h-276v334zM717 1047q0 123 -54.5 193.5t-160.5 70.5q-27 0 -44.5 -1.5t-36 -5
t-22.5 -4.5v-542q174 0 246 64.5t72 224.5z" />
    <glyph glyph-name="afii10046" unicode="&#x42c;" horiz-adv-x="1241" 
d="M6 602v209h172v678h471q262 0 391 -109t129 -333q0 -217 -125.5 -331t-367.5 -114h-236v-119h348v-209h-348v-274h-262v274h-172v209h172v119h-172zM440 811h168q157 0 229 57.5t72 178.5q0 122 -71 178.5t-230 56.5h-168v-471z" />
    <glyph glyph-name="afii10047" unicode="&#x42d;" horiz-adv-x="993" 
d="M1155 1167q0 -119 -38 -215.5t-102 -160.5t-151.5 -107.5t-183.5 -62.5t-201 -19l-41 -172h353l-25 -119h-352l-68 -311h-272l69 311h-102l22 119h107l39 172h-103l27 117h103l159 731q195 29 373 29q190 0 288.5 -85t98.5 -227zM862 1116q0 64 -13.5 106.5t-37 61
t-44.5 25t-48 6.5q-47 0 -84 -6l-131 -590q94 0 165 33.5t112 91t61 126t20 146.5z" />
    <glyph glyph-name="afii10048" unicode="&#x42e;" horiz-adv-x="870" 
d="M25 737h120v744h220q232 0 340 -110t108 -320t-108 -320t-340 -110h-76v-160h268v-117h-268v-344h-144v344h-120v117h120v160h-120v116zM289 737h108q144 0 212.5 82.5t68.5 222.5q0 144 -68.5 227t-212.5 83h-108v-615z" />
    <glyph glyph-name="afii10049" unicode="&#x42f;" horiz-adv-x="1216" 
d="M72 770h157v709h369q261 0 386.5 -102t125.5 -308t-119.5 -310t-367.5 -104h-271v-161h410v-115h-410v-379h-123v379h-157v115h157v161h-157v115zM352 770h303q157 0 242.5 79t85.5 220q0 149 -91 222t-276 73h-264v-594z" />
    <glyph glyph-name="afii10065" unicode="&#x430;" horiz-adv-x="1036" 
d="M1092 1100q0 -136 -44.5 -240t-125 -168t-186.5 -96.5t-234 -32.5h-82l-37 -168h322l-39 -182h-322l-45 -213h-238l43 213h-100l39 182h100l37 168h-102l39 182h102l135 637q176 27 332 27q92 0 164.5 -18.5t117 -48.5t73.5 -71t40 -83t11 -88zM532 745q144 0 226 80
t82 242q0 156 -176 156q-58 0 -107 -11l-98 -467h73z" />
    <glyph glyph-name="afii10066" unicode="&#x431;" horiz-adv-x="1257" 
d="M756 1317l-121 -594h211q177 0 277 100t100 267q0 51 -16 91.5t-43.5 64t-55.5 39t-60.5 22t-49.5 8.5t-31 2h-211zM283 606l22 117h195l143 711h373q166 0 260 -92t94 -238q0 -89 -32.5 -175.5t-94.5 -159.5t-164.5 -118t-228.5 -45h-238l-43 -211h258l-18 -92h-258
l-62 -303h-135l62 303h-195l19 92h194l43 211h-194z" />
    <glyph glyph-name="afii10067" unicode="&#x432;" horiz-adv-x="997" 
d="M954 1018q0 -66 -12.5 -126t-46.5 -121.5t-88 -106t-143 -73t-205 -28.5h-82v-168h321v-182h-321v-213h-240v213h-102v182h102v168h-102v182h102v637q170 27 379 27q115 0 201.5 -32.5t137 -88.5t75 -124t24.5 -146zM696 995q0 106 -52.5 167t-162.5 61q-58 0 -104 -11
v-467h74q131 0 188 61t57 189z" />
    <glyph glyph-name="afii10068" unicode="&#x433;" horiz-adv-x="1146" 
d="M16 608v197h162v711h414q100 0 182.5 -18.5t137.5 -48t97 -71t65.5 -83t37.5 -88.5t18.5 -83t4.5 -71q0 -59 -14 -116.5t-52 -118.5t-97 -106.5t-157 -74.5t-223 -29h-133v-143h448v-164h-448v-301h-281v301h-162v164h162v143h-162zM459 1253v-448h149q29 0 57 4t63.5 19
t62 38.5t45 67.5t18.5 102q0 54 -18.5 95t-45.5 63.5t-63 36.5t-64 18t-55 4h-149z" />
    <glyph glyph-name="afii10069" unicode="&#x434;" 
d="M178 1497h383q276 0 421.5 -115.5t145.5 -334.5t-145.5 -335t-421.5 -116h-170v-127h432l2 -109h-434v-360h-213l-2 360h-166v109h168v127h-168v180h168v721zM391 1317v-541h150q189 0 279.5 64.5t90.5 203.5q0 140 -91 206.5t-279 66.5h-150z" />
    <glyph glyph-name="afii10070" unicode="&#x435;" horiz-adv-x="1136" 
d="M827 285h-387v-285h-221v285h-178v176h178v147h-178v191h178v717h367q264 0 399 -122.5t135 -334.5q0 -213 -134.5 -332t-399.5 -119h-146v-147h387v-176zM440 1313v-514h146q90 0 154.5 23.5t97.5 64t47 83.5t14 93t-14 91t-47 78.5t-97.5 59t-154.5 21.5h-146z" />
    <glyph glyph-name="afii10072" unicode="&#x436;" 
d="M369 776l137 721h330q298 0 419 -119q48 -48 77.5 -123t29.5 -168q0 -198 -127 -325q-82 -80 -217 -123t-309 -43h-164l-25 -127h432l-20 -109h-434l-70 -360h-213l70 360h-164l20 109h164l25 127h-164l35 180h168zM684 1317l-104 -541h151q110 0 196 19t142 77
q76 79 76 207q0 106 -66 168q-76 70 -280 70h-115z" />
    <glyph glyph-name="afii10073" unicode="&#x437;" horiz-adv-x="1265" 
d="M98 0l49 258h-151l35 176h151l23 117h-152l45 231h152l143 734h527q195 0 320.5 -113t125.5 -320q0 -249 -153 -390.5t-410 -141.5h-228l-22 -117h418l-35 -176h-418l-49 -258h-371zM698 1176l-77 -394h137q97 0 166 60.5t69 158.5q0 79 -53 127t-139 48h-103z" />
    <glyph glyph-name="afii10074" unicode="&#x438;" horiz-adv-x="831" 
d="M61 203l35 164h84l228 1067h450q26 0 46 -2t45 -9.5t41.5 -20.5t28 -38t11.5 -59q0 -61 -14 -127l-92 -435q-9 -39 -17.5 -66.5t-28.5 -66.5t-46.5 -63t-71.5 -42t-103 -18h-163l-27 -120h215l-35 -164h-215l-43 -203h-287l43 203h-84zM526 645h37q22 0 41 17t27 55
l104 487q7 36 -5 54t-34 18h-37z" />
    <glyph glyph-name="afii10075" unicode="&#x439;" horiz-adv-x="1136" 
d="M37 711h192v805h342q139 0 222.5 -19t156.5 -72q68 -50 111 -143.5t43 -196.5t-43 -196.5t-111 -143.5q-69 -54 -154 -72t-225 -18h-280v-219h514v-55h-514v-381h-62v381h-192v55h192v219h-192v56zM291 1460v-749h282q128 0 204.5 18.5t140.5 65.5q55 41 89.5 121
t34.5 167q0 91 -34 171.5t-90 121.5q-64 47 -140.5 65.5t-204.5 18.5h-282z" />
    <glyph glyph-name="afii10076" unicode="&#x43a;" horiz-adv-x="1134" 
d="M-25 438h195l33 170h-195l29 137h192l152 771h391q219 0 334 -95q129 -107 129 -313q0 -255 -188 -391q-154 -109 -406 -109h-285l-32 -170h446l-27 -129h-446l-59 -309h-152l59 309h-196zM506 1378l-123 -633h283q177 0 286 80q61 44 96 116t35 163q0 133 -84 209
q-47 41 -107 53t-140 12h-246z" />
    <glyph glyph-name="afii10077" unicode="&#x43b;" 
d="M590 1237l-107 -557h203q261 0 365 104q77 77 77 201q0 113 -65 178q-43 43 -111 58.5t-166 15.5h-196zM475 1360h348q248 0 357 -113q88 -92 88 -250q0 -179 -111 -290q-76 -76 -197 -113t-260 -37h-241l-33 -166h414l-17 -90h-415l-58 -301h-139l59 301h-141l18 90h140
l32 166h-141l25 123h139z" />
    <glyph glyph-name="afii10078" unicode="&#x43c;" horiz-adv-x="831" 
d="M10 203v164h74v1067h451q58 0 99.5 -18t62.5 -42.5t33.5 -63t15 -66.5t2.5 -66v-435q0 -38 -2.5 -66t-15 -66.5t-33.5 -63t-62.5 -42.5t-99.5 -18h-164v-120h225v-164h-225v-203h-287v203h-74zM371 645h37q24 0 38.5 19.5t14.5 52.5v487q0 33 -14.5 52.5t-38.5 19.5h-37
v-631z" />
    <glyph glyph-name="afii10079" unicode="&#x43d;" horiz-adv-x="1136" 
d="M168 0l55 285h-178l35 176h176l29 147h-176l36 191h177l141 717h377q98 0 180.5 -22.5t148.5 -90.5q105 -110 105 -285q0 -255 -182 -405q-43 -35 -92 -57.5t-100.5 -32t-89.5 -12.5t-87 -3h-213l-31 -147h387l-35 -176h-387l-55 -285h-221zM645 1313l-100 -514h217
q124 0 199 65q92 81 92 217q0 108 -54 166q-37 41 -80 53.5t-96 12.5h-178z" />
    <glyph glyph-name="afii10080" unicode="&#x43e;" 
d="M344 1237v-557h203q198 0 292.5 66.5t94.5 211.5t-94.5 212t-292.5 67h-203zM205 1360h387q229 0 355 -105.5t126 -293.5q0 -190 -126 -297t-355 -107h-248v-166h414v-90h-414v-301h-139v301h-139v90h139v166h-139v123h139v680z" />
    <glyph glyph-name="afii10081" unicode="&#x43f;" horiz-adv-x="1021" 
d="M127 1368q178 41 346 41q110 0 195.5 -26t136.5 -67.5t83.5 -98t44 -111t11.5 -113.5q0 -42 -3 -79t-15 -85.5t-31 -88t-55 -79.5t-84 -67.5t-120 -44.5t-161 -17h-78v-137h301v-213h-301v-182h-270v182h-92v213h92v137h-92v213h92v623zM397 1184v-439h64
q114 0 160.5 58.5t46.5 173.5q0 215 -181 215z" />
    <glyph glyph-name="afii10082" unicode="&#x440;" horiz-adv-x="1001" 
d="M350 1368q170 41 324 41q121 0 204 -26t126.5 -74.5t61 -104.5t17.5 -129q0 -158 -62.5 -279.5t-191 -192.5t-307.5 -71h-78l-30 -137h301l-45 -213h-301l-39 -182h-269l37 182h-90l45 213h90l31 137h-90l43 213h92zM582 1184l-93 -439h64q122 0 193 84.5t71 200.5
q0 86 -35.5 124t-107.5 38z" />
    <glyph glyph-name="afii10083" unicode="&#x441;" horiz-adv-x="643" 
d="M35 217l26 135h97l231 1082h316q73 0 103 -14q48 -24 48 -89q0 -45 -12 -106l-105 -494q-7 -34 -13.5 -56.5t-23.5 -56.5t-40 -54.5t-63 -36t-91 -15.5h-113l-35 -160h156l-27 -135h-157l-45 -217h-203l45 217h-94zM424 643h25q31 0 53.5 18t29.5 52l111 516q9 42 -9 58
t-44 16h-27z" />
    <glyph glyph-name="afii10084" unicode="&#x442;" horiz-adv-x="856" 
d="M0 752h113v682h305q57 0 96 -4t94 -26.5t97 -64.5q63 -65 83.5 -145.5t20.5 -181.5v-41q0 -190 -88 -291q-99 -113 -283 -113h-121v-114h142v-185h-142v-268h-204v268h-113v185h113v114h-113v185zM317 1249v-497h111q89 0 137 53q7 8 12.5 15.5t9.5 16.5t7 15t5 17
t3 15.5t1.5 17.5t0.5 16v17.5v16.5v95q0 28 -1 41.5t-5 40t-16.5 46.5t-32.5 37q-22 18 -53 26.5t-48.5 9.5t-58.5 1h-72z" />
    <glyph glyph-name="afii10085" unicode="&#x443;" horiz-adv-x="1134" 
d="M0 436h201v172h-201v133h201v775h424q127 0 224 -31.5t151.5 -78.5t88.5 -111.5t45 -119.5t11 -114q0 -70 -17 -133.5t-56 -123t-98 -102.5t-148.5 -68.5t-200.5 -25.5h-273v-172h527v-129h-527v-307h-151v307h-201v129zM352 1378v-637h275q97 0 170.5 27t114.5 73.5
t61 101t20 116.5q0 64 -20 119t-61.5 101t-114.5 72.5t-170 26.5h-275z" />
    <glyph glyph-name="afii10086" unicode="&#x444;" horiz-adv-x="997" 
d="M123 719v661q172 29 350 29q99 0 178 -21.5t130.5 -57.5t85.5 -86.5t48.5 -105.5t14.5 -118q0 -51 -5.5 -95.5t-21 -91.5t-40 -84.5t-65 -72t-94 -57.5t-129 -36.5t-167.5 -13.5h-86v-174h383v-151h-383v-244h-199v244h-98v151h98v172h-98v152h98zM723 993
q0 122 -62.5 193t-199.5 71q-30 0 -65 -4.5t-54 -8.5l-20 -5v-520h81q91 0 155 20.5t99 58.5t50.5 85.5t15.5 109.5z" />
    <glyph glyph-name="afii10087" unicode="&#x445;" horiz-adv-x="954" 
d="M887 995q0 -53 -12 -104.5t-44.5 -106.5t-83 -96t-135.5 -67.5t-194 -26.5h-107v-172h394v-125h-394v-297h-168v297h-118v125h118v172h-118v125h118v663q117 27 285 27q83 0 150.5 -13t114.5 -34t82.5 -53.5t56 -67t33.5 -78t17.5 -83t4.5 -85.5zM713 1022q0 122 -72 194
t-207 72q-43 0 -73.5 -2.5t-40.5 -5.5l-9 -2v-559h111q70 0 123 17t84.5 44.5t50.5 68t26 81.5t7 92z" />
    <glyph glyph-name="afii10088" unicode="&#x446;" horiz-adv-x="1136" 
d="M514 1516h352q123 0 197 -21t131 -68q60 -49 92.5 -127t32.5 -170q0 -251 -182 -378q-85 -59 -183 -78t-247 -19h-297l-43 -219h524l-10 -55h-527l-73 -381h-62l74 381h-191l11 55h190l43 219h-190l10 56h190zM565 1460l-145 -749h301q121 0 203.5 14.5t152.5 56.5
q180 108 180 348q0 175 -112 259q-53 39 -120 55t-181 16h-279z" />
    <glyph glyph-name="afii10089" unicode="&#x447;" horiz-adv-x="643" 
d="M16 217v135h68v1082h315q29 0 46.5 -1.5t47 -12.5t47 -31t31 -62t13.5 -102v-494q0 -61 -13 -104.5t-30 -65t-45.5 -33.5t-48 -14t-48.5 -2h-112v-160h184v-135h-184v-217h-203v217h-68zM287 643h24q31 0 50.5 17.5t19.5 52.5v516q0 42 -21 58t-47 16h-26v-660z" />
    <glyph glyph-name="afii10090" unicode="&#x448;" horiz-adv-x="1146" 
d="M10 465h154l26 143h-153l39 197h153l140 711h432q98 0 180.5 -22.5t148.5 -90.5q108 -113 103 -299q-7 -269 -166 -391q-58 -46 -130.5 -70.5t-122.5 -29.5t-118 -5h-223l-29 -143h410l-33 -164h-409l-58 -301h-280l57 301h-156zM598 1253l-88 -448h188q101 0 162 51
q30 26 57.5 77.5t30.5 117.5q5 100 -39 149q-49 53 -143 53h-168z" />
    <glyph glyph-name="afii10091" unicode="&#x449;" horiz-adv-x="1265" 
d="M27 782h151v734h432q186 0 293 -26t172 -79q180 -143 174 -399q-6 -251 -168 -365q-80 -56 -176.5 -76t-251.5 -20h-104v-117h418v-176h-418v-258h-371v258h-151v176h151v117h-151v231zM549 1176v-394h92q28 0 54 3t62.5 15.5t62.5 33t44.5 60.5t18.5 93q0 39 -10.5 69.5
t-25.5 50t-39.5 33.5t-44.5 21t-50 10.5t-45.5 4t-40.5 0.5h-78z" />
    <glyph glyph-name="afii10092" unicode="&#x44a;" horiz-adv-x="966" 
d="M1030 1110q0 -237 -145 -376.5t-398 -139.5h-106l-37 -172h393l-26 -125h-394l-63 -297h-166l62 297h-117l26 125h117l37 172h-119l27 125h119l141 663q122 27 278 27q93 0 162 -17.5t108 -45t62.5 -68.5t31 -80t7.5 -88zM408 719h110q158 0 250 101t92 261
q0 105 -48.5 156t-160.5 51q-43 0 -74 -2.5t-41 -5.5l-10 -2z" />
    <glyph glyph-name="afii10093" unicode="&#x44b;" horiz-adv-x="993" 
d="M211 719l141 661q179 29 324 29q387 0 387 -303q0 -262 -160.5 -399.5t-439.5 -137.5h-86l-37 -174h383l-31 -151h-383l-53 -244h-197l52 244h-97l31 151h96l37 172h-96l31 152h98zM492 719q87 0 154.5 26t106.5 64.5t63.5 89.5t33 94t8.5 84q0 180 -201 180
q-27 0 -61.5 -4.5t-55.5 -8.5l-20 -5l-110 -520h82z" />
    <glyph glyph-name="afii10094" unicode="&#x44c;" horiz-adv-x="1257" 
d="M475 1317v-594h211q22 0 42 1.5t53 8t60.5 18t57.5 34t50.5 52.5t34 77.5t13.5 105.5q0 60 -16 109t-39 79t-56.5 52.5t-61 33t-61 16t-48 6.5t-29.5 1h-211zM145 606v117h195v711h373q198 0 314 -114t116 -300q0 -187 -115.5 -300.5t-314.5 -113.5h-238v-211h258v-92
h-258v-303h-135v303h-195v92h195v211h-195z" />
    <glyph glyph-name="afii10095" unicode="&#x44d;" 
d="M117 1497h377q172 0 278 -14t182 -56q102 -57 155.5 -159t53.5 -240t-54 -241t-155 -160q-74 -41 -182.5 -55.5t-277.5 -14.5h-45v-127h372v-133h-372v-297h-332v297h-172v133h172v127h-172v254h172v686zM449 1243v-432h92q160 0 223 45t63 170q0 126 -63 171.5
t-223 45.5h-92z" />
    <glyph glyph-name="afii10096" unicode="&#x44e;" 
d="M414 1253v-499h180q62 0 122 18.5t95 52.5q70 66 70 176q0 130 -93 195q-82 57 -223 57h-151zM209 0v332h-164v139h164v143h-164v140h164v680h352q254 0 385 -101q73 -57 107 -135q32 -74 32 -168q0 -92 -34.5 -172.5t-92.5 -132.5q-43 -38 -101 -63t-117 -34t-90 -11.5
t-58 -2.5h-178v-143h286v-139h-286v-332h-205z" />
    <glyph glyph-name="afii10097" unicode="&#x44f;" 
d="M406 1497h368q167 0 280 -26t189 -99q117 -112 117 -315q0 -212 -133 -340q-46 -44 -106.5 -75.5t-116 -47.5t-134 -25t-133 -10.5t-139.5 -1.5h-43l-25 -127h373l-26 -133h-373l-58 -297h-331l57 297h-170l27 133h172l24 127h-172l47 254h174zM688 1243l-84 -432h98
q95 0 157.5 13t103.5 57q61 64 61 180q0 88 -47 135q-22 22 -60 33t-66 12.5t-79 1.5h-84z" />
    <glyph glyph-name="afii61352" unicode="&#x2116;" horiz-adv-x="1187" 
d="M246 1434h395q124 0 214 -21.5t161 -89.5q49 -47 79.5 -122.5t30.5 -168.5q0 -86 -28.5 -158.5t-75.5 -119.5q-119 -119 -399 -119h-185v-164h451v-143h-451v-328h-192v328h-164v143h164v164h-164v143h164v656zM438 1272v-494h176q171 0 252 68q76 64 76 182
q0 119 -76 180q-34 29 -94 47q-62 17 -158 17h-176z" />
  </font>
</defs>
</svg>
